<svg data-name="Layer 1" xmlns="http://www.w3.org/2000/svg" viewBox="0 0 524.28 103.9">
    <path d="M571.64 418.59v.46a50 50 0 0 1-49.56 50l-340.83 3h-.07L97.8 473h-.44a50 50 0 0 1-50-49.56V423a50 50 0 0 1 49.52-50l62.5-.75 21.83-.19 340-3h.44a50 50 0 0 1 49.99 49.53Z" transform="translate(-47.36 -369.05)" style="fill:#fff"/>
    <path d="M285.72 426.81c-2.41-1.55-6.08-2.71-11-3.55-4.64-.78-7.72-1.59-9.23-2.34s-2.27-1.76-2.27-3a3.51 3.51 0 0 1 2.1-3.14c1.4-.78 3.68-1.2 6.82-1.2q5 0 7.22 1.37a4.34 4.34 0 0 1 2.21 3.85v.41h6.51v-.41c0-3-1.44-5.48-4.31-7.34s-6.76-2.75-11.66-2.75c-4.73 0-8.48.9-11.26 2.73s-4.17 4.08-4.17 6.83a7.11 7.11 0 0 0 3.73 6.37c2.49 1.52 6 2.62 10.82 3.41s8 1.61 9.39 2.43a3.82 3.82 0 0 1 2.1 3.42q0 2.3-2.81 3.6a18.16 18.16 0 0 1-7.5 1.3 16.91 16.91 0 0 1-7.49-1.43 4.54 4.54 0 0 1-2.85-4.26v-.22h-6.54v.22a8.84 8.84 0 0 0 4.32 7.67q4.32 2.88 12.56 2.89t12.59-2.84c2.87-1.9 4.31-4.32 4.36-7.32a7.48 7.48 0 0 0-3.64-6.7Zm24.77 11.74a5.29 5.29 0 0 1-3.47-.94 3.92 3.92 0 0 1-1.1-3.15v-20.19h9.32v-4.62h-9.32v-8.17h-6.55v8.17h-7.58v4.62h7.59v20.19q0 4.79 2.54 7a10 10 0 0 0 6.82 2.21 19.41 19.41 0 0 0 3.49-.28 14.05 14.05 0 0 0 2.55-.66v-4.87c-.73.21-1.43.37-2.12.5a12 12 0 0 1-2.17.19Zm45.56-13.42q0-7.56-4.54-12t-13-4.43q-8.44 0-13.56 4.75a15.94 15.94 0 0 0-5.12 12.23v1a16 16 0 0 0 5.17 12.24q5.12 4.74 14.68 4.74a22.39 22.39 0 0 0 10-2 17.87 17.87 0 0 0 6-4.4l-4.21-3.21a15.58 15.58 0 0 1-4.74 3.29 16.47 16.47 0 0 1-7.06 1.4q-6.86 0-10.1-3.37a11.63 11.63 0 0 1-3.22-7.79H356Zm-6.63-2.33h-22.89a11.43 11.43 0 0 1 2.82-5.79q3.09-3.36 9.19-3.36c3.89 0 6.67.82 8.36 2.46a8.84 8.84 0 0 1 2.52 6.59Zm44.46-10.59q-3.74-3.16-10-3.16a19.06 19.06 0 0 0-7.5 1.39 16.59 16.59 0 0 0-5.9 4.21h-.1l-.31-5h-6v33.08h6.55v-22.52a13.43 13.43 0 0 1 4.51-4.42 12.37 12.37 0 0 1 6.58-1.72 10.44 10.44 0 0 1 6.85 2q2.4 2 2.4 6.6v20.06h6.58v-20q.08-7.36-3.66-10.52Zm32.5-3.36a9.66 9.66 0 0 0-1.78-.16 12 12 0 0 0-6.5 1.71 17 17 0 0 0-4.46 4h-.1l-.3-4.75h-6v33.08h6.54v-22.68a11.06 11.06 0 0 1 4-4 12.05 12.05 0 0 1 6.46-1.57c.68 0 1.31 0 1.87.07s1.11.1 1.63.18v-5.6a12.26 12.26 0 0 0-1.36-.28Zm38.12 4.61a17.13 17.13 0 0 0-4.48-2.9l1.83-4.21-5.8-.09-1.23 2.8a26.73 26.73 0 0 0-4.46-.35q-8.88 0-14.18 4.75a15.64 15.64 0 0 0-5.29 12.23v1a15.73 15.73 0 0 0 5.29 12.24 16.88 16.88 0 0 0 4.51 2.9l-1.8 4.11 5.6.16 1.28-2.79a29.39 29.39 0 0 0 4.59.36q8.81 0 14.09-4.7a15.73 15.73 0 0 0 5.29-12.24l.05-1a15.71 15.71 0 0 0-5.29-12.27Zm-21.14 23.8a9.79 9.79 0 0 1-2.57-1.9 12 12 0 0 1-3.22-8.67v-1a12 12 0 0 1 3.22-8.66q3.22-3.37 9.57-3.38a18.12 18.12 0 0 1 3.12.21l-4.31 10Zm19.7-10.54a12.05 12.05 0 0 1-3.23 8.67q-3.22 3.38-9.52 3.38a19.86 19.86 0 0 1-3.18-.25l5.35-12.42 4.74-11a9.24 9.24 0 0 1 2.61 1.95 12 12 0 0 1 3.23 8.67Zm42.65-32.29V414a13.76 13.76 0 0 0-5.17-3.55 20.24 20.24 0 0 0-7.85-1.36q-7.79 0-12.45 4.59a16.2 16.2 0 0 0-4.7 12v1a16.2 16.2 0 0 0 4.7 12q4.69 4.73 12.49 4.72a19.1 19.1 0 0 0 8-1.56 13.23 13.23 0 0 0 5.12-3.75h.15l.37 4.68h5.9v-48.3Zm0 38a11.77 11.77 0 0 1-4.23 4.18 13.33 13.33 0 0 1-7.16 1.82q-6.27 0-9.21-3.25a12.16 12.16 0 0 1-2.93-8.48v-1a12.16 12.16 0 0 1 2.93-8.48q2.94-3.25 9.21-3.25a13.37 13.37 0 0 1 7.12 1.82 11.59 11.59 0 0 1 4.27 4.19Zm0-38V414a13.76 13.76 0 0 0-5.17-3.55 20.24 20.24 0 0 0-7.85-1.36q-7.79 0-12.45 4.59a16.2 16.2 0 0 0-4.7 12v1a16.2 16.2 0 0 0 4.7 12q4.69 4.73 12.49 4.72a19.1 19.1 0 0 0 8-1.56 13.23 13.23 0 0 0 5.12-3.75h.15l.37 4.68h5.9v-48.3Zm0 38a11.77 11.77 0 0 1-4.23 4.18 13.33 13.33 0 0 1-7.16 1.82q-6.27 0-9.21-3.25a12.16 12.16 0 0 1-2.93-8.48v-1a12.16 12.16 0 0 1 2.93-8.48q2.94-3.25 9.21-3.25a13.37 13.37 0 0 1 7.12 1.82 11.59 11.59 0 0 1 4.27 4.19Zm-41.25-19a17.13 17.13 0 0 0-4.48-2.9l1.83-4.21-5.8-.09-1.23 2.8a26.73 26.73 0 0 0-4.46-.35q-8.88 0-14.18 4.75a15.64 15.64 0 0 0-5.29 12.23v1a15.73 15.73 0 0 0 5.29 12.24 16.88 16.88 0 0 0 4.51 2.9l-1.8 4.11 5.6.16 1.28-2.79a29.39 29.39 0 0 0 4.59.36q8.81 0 14.09-4.7a15.73 15.73 0 0 0 5.29-12.24l.05-1a15.71 15.71 0 0 0-5.25-12.24Zm-21.14 23.8a9.79 9.79 0 0 1-2.57-1.9 12 12 0 0 1-3.22-8.67v-1a12 12 0 0 1 3.22-8.66q3.22-3.37 9.57-3.38a18.12 18.12 0 0 1 3.12.21l-4.31 10Zm19.7-10.54a12.05 12.05 0 0 1-3.23 8.67q-3.22 3.38-9.52 3.38a19.86 19.86 0 0 1-3.18-.25l5.35-12.42 4.74-11a9.24 9.24 0 0 1 2.61 1.95 12 12 0 0 1 3.23 8.67Zm-36.68-17.87a9.66 9.66 0 0 0-1.78-.16 12 12 0 0 0-6.5 1.71 17 17 0 0 0-4.46 4h-.1l-.3-4.75h-6v33.08h6.54v-22.65a11.06 11.06 0 0 1 4-4 12.05 12.05 0 0 1 6.46-1.57c.68 0 1.31 0 1.87.07s1.11.1 1.63.18v-5.6a12.26 12.26 0 0 0-1.32-.28Zm-32.5 3.36q-3.74-3.16-10-3.16a19.06 19.06 0 0 0-7.5 1.39 16.59 16.59 0 0 0-5.9 4.21h-.1l-.31-5h-6v33.08h6.55v-22.49a13.43 13.43 0 0 1 4.51-4.42 12.37 12.37 0 0 1 6.58-1.72 10.44 10.44 0 0 1 6.85 2q2.4 2 2.4 6.6v20.06h6.58v-20q.12-7.36-3.62-10.52Zm-37.83 12.92q0-7.56-4.54-12t-13-4.43q-8.44 0-13.56 4.75a15.94 15.94 0 0 0-5.12 12.23v1a16 16 0 0 0 5.21 12.27q5.12 4.74 14.68 4.74a22.39 22.39 0 0 0 10-2 17.87 17.87 0 0 0 6-4.4l-4.21-3.21a15.58 15.58 0 0 1-4.74 3.29 16.47 16.47 0 0 1-7.06 1.4q-6.86 0-10.1-3.37a11.63 11.63 0 0 1-3.22-7.79H356Zm-6.63-2.33h-22.85a11.43 11.43 0 0 1 2.82-5.79q3.09-3.36 9.19-3.36c3.89 0 6.67.82 8.36 2.46a8.84 8.84 0 0 1 2.52 6.59Zm-38.93 15.75a5.29 5.29 0 0 1-3.47-.94 3.92 3.92 0 0 1-1.1-3.15v-20.16h9.32v-4.62h-9.32v-8.17h-6.55v8.17h-7.58v4.62h7.59v20.19q0 4.79 2.54 7a10 10 0 0 0 6.82 2.21 19.41 19.41 0 0 0 3.49-.28 14.05 14.05 0 0 0 2.55-.66v-4.87c-.73.21-1.43.37-2.12.5a12 12 0 0 1-2.13.19Zm-24.77-11.74c-2.41-1.55-6.08-2.71-11-3.55-4.64-.78-7.72-1.59-9.23-2.34s-2.27-1.76-2.27-3a3.51 3.51 0 0 1 2.1-3.14c1.4-.78 3.68-1.2 6.82-1.2q5 0 7.22 1.37a4.34 4.34 0 0 1 2.21 3.85v.41h6.51v-.41c0-3-1.44-5.48-4.31-7.34s-6.76-2.75-11.66-2.75c-4.73 0-8.48.9-11.26 2.73s-4.17 4.08-4.17 6.83a7.11 7.11 0 0 0 3.73 6.37c2.49 1.52 6 2.62 10.82 3.41s8 1.61 9.39 2.43a3.82 3.82 0 0 1 2.1 3.42q0 2.3-2.81 3.6a18.16 18.16 0 0 1-7.5 1.3 16.91 16.91 0 0 1-7.49-1.43 4.54 4.54 0 0 1-2.85-4.26v-.22h-6.54v.22a8.84 8.84 0 0 0 4.32 7.67q4.32 2.88 12.56 2.89t12.63-2.81c2.87-1.9 4.31-4.32 4.36-7.32a7.48 7.48 0 0 0-3.64-6.7Zm0 0c-2.41-1.55-6.08-2.71-11-3.55-4.64-.78-7.72-1.59-9.23-2.34s-2.27-1.76-2.27-3a3.51 3.51 0 0 1 2.1-3.14c1.4-.78 3.68-1.2 6.82-1.2q5 0 7.22 1.37a4.34 4.34 0 0 1 2.21 3.85v.41h6.51v-.41c0-3-1.44-5.48-4.31-7.34s-6.76-2.75-11.66-2.75c-4.73 0-8.48.9-11.26 2.73s-4.17 4.08-4.17 6.83a7.11 7.11 0 0 0 3.73 6.37c2.49 1.52 6 2.62 10.82 3.41s8 1.61 9.39 2.43a3.82 3.82 0 0 1 2.1 3.42q0 2.3-2.81 3.6a18.16 18.16 0 0 1-7.5 1.3 16.91 16.91 0 0 1-7.49-1.43 4.54 4.54 0 0 1-2.85-4.26v-.22h-6.54v.22a8.84 8.84 0 0 0 4.32 7.67q4.32 2.88 12.56 2.89t12.63-2.81c2.87-1.9 4.31-4.32 4.36-7.32a7.48 7.48 0 0 0-3.64-6.7Zm24.77 11.74a5.29 5.29 0 0 1-3.47-.94 3.92 3.92 0 0 1-1.1-3.15v-20.16h9.32v-4.62h-9.32v-8.17h-6.55v8.17h-7.58v4.62h7.59v20.19q0 4.79 2.54 7a10 10 0 0 0 6.82 2.21 19.41 19.41 0 0 0 3.49-.28 14.05 14.05 0 0 0 2.55-.66v-4.87c-.73.21-1.43.37-2.12.5a12 12 0 0 1-2.13.19Zm45.56-13.42q0-7.56-4.54-12t-13-4.43q-8.44 0-13.56 4.75a15.94 15.94 0 0 0-5.12 12.23v1a16 16 0 0 0 5.21 12.27q5.12 4.74 14.68 4.74a22.39 22.39 0 0 0 10-2 17.87 17.87 0 0 0 6-4.4l-4.21-3.21a15.58 15.58 0 0 1-4.74 3.29 16.47 16.47 0 0 1-7.06 1.4q-6.86 0-10.1-3.37a11.63 11.63 0 0 1-3.22-7.79H356Zm-6.63-2.33h-22.85a11.43 11.43 0 0 1 2.82-5.79q3.09-3.36 9.19-3.36c3.89 0 6.67.82 8.36 2.46a8.84 8.84 0 0 1 2.52 6.59Zm44.46-10.59q-3.74-3.16-10-3.16a19.06 19.06 0 0 0-7.5 1.39 16.59 16.59 0 0 0-5.9 4.21h-.1l-.31-5h-6v33.08h6.55v-22.49a13.43 13.43 0 0 1 4.51-4.42 12.37 12.37 0 0 1 6.58-1.72 10.44 10.44 0 0 1 6.85 2q2.4 2 2.4 6.6v20.06h6.58v-20q.12-7.36-3.62-10.52Zm32.5-3.36a9.66 9.66 0 0 0-1.78-.16 12 12 0 0 0-6.5 1.71 17 17 0 0 0-4.46 4h-.1l-.3-4.75h-6v33.08h6.54v-22.65a11.06 11.06 0 0 1 4-4 12.05 12.05 0 0 1 6.46-1.57c.68 0 1.31 0 1.87.07s1.11.1 1.63.18v-5.6a12.26 12.26 0 0 0-1.32-.28Zm38.12 4.61a17.13 17.13 0 0 0-4.48-2.9l1.83-4.21-5.8-.09-1.23 2.8a26.73 26.73 0 0 0-4.46-.35q-8.88 0-14.18 4.75a15.64 15.64 0 0 0-5.29 12.23v1a15.73 15.73 0 0 0 5.29 12.24 16.88 16.88 0 0 0 4.51 2.9l-1.8 4.11 5.6.16 1.28-2.79a29.39 29.39 0 0 0 4.59.36q8.81 0 14.09-4.7a15.73 15.73 0 0 0 5.29-12.24l.05-1a15.71 15.71 0 0 0-5.25-12.24Zm-21.14 23.8a9.79 9.79 0 0 1-2.57-1.9 12 12 0 0 1-3.22-8.67v-1a12 12 0 0 1 3.22-8.66q3.22-3.37 9.57-3.38a18.12 18.12 0 0 1 3.12.21l-4.31 10Zm19.7-10.54a12.05 12.05 0 0 1-3.23 8.67q-3.22 3.38-9.52 3.38a19.86 19.86 0 0 1-3.18-.25l5.35-12.42 4.74-11a9.24 9.24 0 0 1 2.61 1.95 12 12 0 0 1 3.23 8.67Zm42.65-32.29V414a13.76 13.76 0 0 0-5.17-3.55 20.24 20.24 0 0 0-7.85-1.36q-7.79 0-12.45 4.59a16.2 16.2 0 0 0-4.7 12v1a16.2 16.2 0 0 0 4.7 12q4.69 4.73 12.49 4.72a19.1 19.1 0 0 0 8-1.56 13.23 13.23 0 0 0 5.12-3.75h.19l.37 4.68h5.9v-48.3Zm0 38a11.77 11.77 0 0 1-4.23 4.18 13.33 13.33 0 0 1-7.16 1.82q-6.27 0-9.21-3.25a12.16 12.16 0 0 1-2.93-8.48v-1a12.16 12.16 0 0 1 2.93-8.48q2.94-3.25 9.21-3.25a13.37 13.37 0 0 1 7.12 1.82 11.59 11.59 0 0 1 4.27 4.19Zm0-38V414a13.76 13.76 0 0 0-5.17-3.55 20.24 20.24 0 0 0-7.85-1.36q-7.79 0-12.45 4.59a16.2 16.2 0 0 0-4.7 12v1a16.2 16.2 0 0 0 4.7 12q4.69 4.73 12.49 4.72a19.1 19.1 0 0 0 8-1.56 13.23 13.23 0 0 0 5.12-3.75h.19l.37 4.68h5.9v-48.3Zm0 38a11.77 11.77 0 0 1-4.23 4.18 13.33 13.33 0 0 1-7.16 1.82q-6.27 0-9.21-3.25a12.16 12.16 0 0 1-2.93-8.48v-1a12.16 12.16 0 0 1 2.93-8.48q2.94-3.25 9.21-3.25a13.37 13.37 0 0 1 7.12 1.82 11.59 11.59 0 0 1 4.27 4.19Zm-41.25-19a17.13 17.13 0 0 0-4.48-2.9l1.83-4.21-5.8-.09-1.23 2.8a26.73 26.73 0 0 0-4.46-.35q-8.88 0-14.18 4.75a15.64 15.64 0 0 0-5.29 12.23v1a15.73 15.73 0 0 0 5.29 12.24 16.88 16.88 0 0 0 4.51 2.9l-1.8 4.11 5.6.16 1.28-2.79a29.39 29.39 0 0 0 4.59.36q8.81 0 14.09-4.7a15.73 15.73 0 0 0 5.29-12.24l.05-1a15.71 15.71 0 0 0-5.21-12.21Zm-21.14 23.8a9.79 9.79 0 0 1-2.57-1.9 12 12 0 0 1-3.22-8.67v-1a12 12 0 0 1 3.22-8.66q3.22-3.37 9.57-3.38a18.12 18.12 0 0 1 3.12.21l-4.31 10Zm19.7-10.54a12.05 12.05 0 0 1-3.23 8.67q-3.22 3.38-9.52 3.38a19.86 19.86 0 0 1-3.18-.25l5.35-12.42 4.74-11a9.24 9.24 0 0 1 2.61 1.95 12 12 0 0 1 3.23 8.67Zm-36.68-17.87a9.66 9.66 0 0 0-1.78-.16 12 12 0 0 0-6.5 1.71 17 17 0 0 0-4.46 4h-.1l-.3-4.75h-6v33.08h6.54v-22.62a11.06 11.06 0 0 1 4-4 12.05 12.05 0 0 1 6.46-1.57c.68 0 1.31 0 1.87.07s1.11.1 1.63.18v-5.6a12.26 12.26 0 0 0-1.28-.28Zm-32.5 3.36q-3.74-3.16-10-3.16a19.06 19.06 0 0 0-7.5 1.39 16.59 16.59 0 0 0-5.9 4.21h-.1l-.31-5h-6v33.08h6.55v-22.46a13.43 13.43 0 0 1 4.51-4.42 12.37 12.37 0 0 1 6.58-1.72 10.44 10.44 0 0 1 6.85 2q2.4 2 2.4 6.6v20.06h6.58v-20q.16-7.36-3.58-10.52Zm-37.83 12.92q0-7.56-4.54-12t-13-4.43q-8.44 0-13.56 4.75a15.94 15.94 0 0 0-5.12 12.23v1a16 16 0 0 0 5.25 12.3q5.12 4.74 14.68 4.74a22.39 22.39 0 0 0 10-2 17.87 17.87 0 0 0 6-4.4l-4.21-3.21a15.58 15.58 0 0 1-4.74 3.29 16.47 16.47 0 0 1-7.06 1.4q-6.86 0-10.1-3.37a11.63 11.63 0 0 1-3.22-7.79H356Zm-6.63-2.33h-22.81a11.43 11.43 0 0 1 2.82-5.79q3.09-3.36 9.19-3.36c3.89 0 6.67.82 8.36 2.46a8.84 8.84 0 0 1 2.52 6.59Zm-38.93 15.75a5.29 5.29 0 0 1-3.47-.94 3.92 3.92 0 0 1-1.1-3.15v-20.13h9.32v-4.62h-9.32v-8.17h-6.55v8.17h-7.58v4.62h7.59v20.19q0 4.79 2.54 7a10 10 0 0 0 6.82 2.21 19.41 19.41 0 0 0 3.49-.28 14.05 14.05 0 0 0 2.55-.66v-4.87c-.73.21-1.43.37-2.12.5a12 12 0 0 1-2.09.19Zm-24.77-11.74c-2.41-1.55-6.08-2.71-11-3.55-4.64-.78-7.72-1.59-9.23-2.34s-2.27-1.76-2.27-3a3.51 3.51 0 0 1 2.1-3.14c1.4-.78 3.68-1.2 6.82-1.2q5 0 7.22 1.37a4.34 4.34 0 0 1 2.21 3.85v.41H288v-.41c0-3-1.44-5.48-4.31-7.34s-6.76-2.75-11.66-2.75c-4.73 0-8.48.9-11.26 2.73s-4.17 4.08-4.17 6.83a7.11 7.11 0 0 0 3.73 6.37c2.49 1.52 6 2.62 10.82 3.41s8 1.61 9.39 2.43a3.82 3.82 0 0 1 2.1 3.42q0 2.3-2.81 3.6a18.16 18.16 0 0 1-7.5 1.3 16.91 16.91 0 0 1-7.49-1.43 4.54 4.54 0 0 1-2.85-4.26v-.22h-6.54v.22a8.84 8.84 0 0 0 4.32 7.67q4.32 2.88 12.56 2.89t12.67-2.78c2.87-1.9 4.31-4.32 4.36-7.32a7.48 7.48 0 0 0-3.64-6.7Zm0 0c-2.41-1.55-6.08-2.71-11-3.55-4.64-.78-7.72-1.59-9.23-2.34s-2.27-1.76-2.27-3a3.51 3.51 0 0 1 2.1-3.14c1.4-.78 3.68-1.2 6.82-1.2q5 0 7.22 1.37a4.34 4.34 0 0 1 2.21 3.85v.41H288v-.41c0-3-1.44-5.48-4.31-7.34s-6.76-2.75-11.66-2.75c-4.73 0-8.48.9-11.26 2.73s-4.17 4.08-4.17 6.83a7.11 7.11 0 0 0 3.73 6.37c2.49 1.52 6 2.62 10.82 3.41s8 1.61 9.39 2.43a3.82 3.82 0 0 1 2.1 3.42q0 2.3-2.81 3.6a18.16 18.16 0 0 1-7.5 1.3 16.91 16.91 0 0 1-7.49-1.43 4.54 4.54 0 0 1-2.85-4.26v-.22h-6.54v.22a8.84 8.84 0 0 0 4.32 7.67q4.32 2.88 12.56 2.89t12.67-2.78c2.87-1.9 4.31-4.32 4.36-7.32a7.48 7.48 0 0 0-3.64-6.7Zm24.77 11.74a5.29 5.29 0 0 1-3.47-.94 3.92 3.92 0 0 1-1.1-3.15v-20.13h9.32v-4.62h-9.32v-8.17h-6.55v8.17h-7.58v4.62h7.59v20.19q0 4.79 2.54 7a10 10 0 0 0 6.82 2.21 19.41 19.41 0 0 0 3.49-.28 14.05 14.05 0 0 0 2.55-.66v-4.87c-.73.21-1.43.37-2.12.5a12 12 0 0 1-2.09.19Zm45.56-13.42q0-7.56-4.54-12t-13-4.43q-8.44 0-13.56 4.75a15.94 15.94 0 0 0-5.12 12.23v1a16 16 0 0 0 5.25 12.3q5.12 4.74 14.68 4.74a22.39 22.39 0 0 0 10-2 17.87 17.87 0 0 0 6-4.4l-4.21-3.21a15.58 15.58 0 0 1-4.74 3.29 16.47 16.47 0 0 1-7.06 1.4q-6.86 0-10.1-3.37a11.63 11.63 0 0 1-3.22-7.79H356Zm-6.63-2.33h-22.81a11.43 11.43 0 0 1 2.82-5.79q3.09-3.36 9.19-3.36c3.89 0 6.67.82 8.36 2.46a8.84 8.84 0 0 1 2.52 6.59Zm44.46-10.59q-3.74-3.16-10-3.16a19.06 19.06 0 0 0-7.5 1.39 16.59 16.59 0 0 0-5.9 4.21h-.1l-.31-5h-6v33.08h6.55v-22.46a13.43 13.43 0 0 1 4.51-4.42 12.37 12.37 0 0 1 6.58-1.72 10.44 10.44 0 0 1 6.85 2q2.4 2 2.4 6.6v20.06h6.58v-20q.16-7.36-3.58-10.52Zm32.5-3.36a9.66 9.66 0 0 0-1.78-.16 12 12 0 0 0-6.5 1.71 17 17 0 0 0-4.46 4h-.1l-.3-4.75h-6v33.08h6.54v-22.62a11.06 11.06 0 0 1 4-4 12.05 12.05 0 0 1 6.46-1.57c.68 0 1.31 0 1.87.07s1.11.1 1.63.18v-5.6a12.26 12.26 0 0 0-1.28-.28Zm38.12 4.61a17.13 17.13 0 0 0-4.48-2.9l1.83-4.21-5.8-.09-1.23 2.8a26.73 26.73 0 0 0-4.46-.35q-8.88 0-14.18 4.75a15.64 15.64 0 0 0-5.29 12.23v1a15.73 15.73 0 0 0 5.29 12.24 16.88 16.88 0 0 0 4.51 2.9l-1.8 4.11 5.6.16 1.28-2.79a29.39 29.39 0 0 0 4.59.36q8.81 0 14.09-4.7a15.73 15.73 0 0 0 5.29-12.24l.05-1a15.71 15.71 0 0 0-5.21-12.21Zm-21.14 23.8a9.79 9.79 0 0 1-2.57-1.9 12 12 0 0 1-3.22-8.67v-1a12 12 0 0 1 3.22-8.66q3.22-3.37 9.57-3.38a18.12 18.12 0 0 1 3.12.21l-4.31 10Zm19.7-10.54a12.05 12.05 0 0 1-3.23 8.67q-3.22 3.38-9.52 3.38a19.86 19.86 0 0 1-3.18-.25l5.35-12.42 4.74-11a9.24 9.24 0 0 1 2.61 1.95 12 12 0 0 1 3.23 8.67Zm42.65-32.29V414a13.76 13.76 0 0 0-5.17-3.55 20.24 20.24 0 0 0-7.85-1.36q-7.79 0-12.45 4.59a16.2 16.2 0 0 0-4.7 12v1a16.2 16.2 0 0 0 4.7 12q4.69 4.73 12.49 4.72a19.1 19.1 0 0 0 8-1.56 13.23 13.23 0 0 0 5.12-3.75h.23l.37 4.68h5.9v-48.3Zm0 38a11.77 11.77 0 0 1-4.23 4.18 13.33 13.33 0 0 1-7.16 1.82q-6.27 0-9.21-3.25a12.16 12.16 0 0 1-2.93-8.48v-1a12.16 12.16 0 0 1 2.93-8.48q2.94-3.25 9.21-3.25a13.37 13.37 0 0 1 7.12 1.82 11.59 11.59 0 0 1 4.27 4.19Zm0-38V414a13.76 13.76 0 0 0-5.17-3.55 20.24 20.24 0 0 0-7.85-1.36q-7.79 0-12.45 4.59a16.2 16.2 0 0 0-4.7 12v1a16.2 16.2 0 0 0 4.7 12q4.69 4.73 12.49 4.72a19.1 19.1 0 0 0 8-1.56 13.23 13.23 0 0 0 5.12-3.75h.23l.37 4.68h5.9v-48.3Zm0 38a11.77 11.77 0 0 1-4.23 4.18 13.33 13.33 0 0 1-7.16 1.82q-6.27 0-9.21-3.25a12.16 12.16 0 0 1-2.93-8.48v-1a12.16 12.16 0 0 1 2.93-8.48q2.94-3.25 9.21-3.25a13.37 13.37 0 0 1 7.12 1.82 11.59 11.59 0 0 1 4.27 4.19Zm-41.25-19a17.13 17.13 0 0 0-4.48-2.9l1.83-4.21-5.8-.09-1.23 2.8a26.73 26.73 0 0 0-4.46-.35q-8.88 0-14.18 4.75a15.64 15.64 0 0 0-5.29 12.23v1a15.73 15.73 0 0 0 5.29 12.24 16.88 16.88 0 0 0 4.51 2.9l-1.8 4.11 5.6.16 1.28-2.79a29.39 29.39 0 0 0 4.59.36q8.81 0 14.09-4.7a15.73 15.73 0 0 0 5.29-12.24l.05-1a15.71 15.71 0 0 0-5.17-12.18Zm-21.14 23.8a9.79 9.79 0 0 1-2.57-1.9 12 12 0 0 1-3.22-8.67v-1a12 12 0 0 1 3.22-8.66q3.22-3.37 9.57-3.38a18.12 18.12 0 0 1 3.12.21l-4.31 10Zm19.7-10.54a12.05 12.05 0 0 1-3.23 8.67q-3.22 3.38-9.52 3.38a19.86 19.86 0 0 1-3.18-.25l5.35-12.42 4.74-11a9.24 9.24 0 0 1 2.61 1.95 12 12 0 0 1 3.23 8.67Zm-38.46-18a12 12 0 0 0-6.5 1.71 17 17 0 0 0-4.46 4h-.1l-.3-4.75h-6v33.08h6.54v-22.62a11.06 11.06 0 0 1 4-4 12.05 12.05 0 0 1 6.46-1.57c.68 0 1.31 0 1.87.07s1.11.1 1.63.18v-5.6a12.26 12.26 0 0 0-1.34-.28 9.66 9.66 0 0 0-1.68-.16Zm-30.72 3.52q-3.74-3.16-10-3.16a19.06 19.06 0 0 0-7.5 1.39 16.59 16.59 0 0 0-5.9 4.21h-.1l-.31-5h-6v33.08h6.55v-22.46a13.43 13.43 0 0 1 4.51-4.42 12.37 12.37 0 0 1 6.58-1.72 10.44 10.44 0 0 1 6.85 2q2.4 2 2.4 6.6v20.06h6.58v-20q.2-7.36-3.54-10.52Zm-55.37-3.51q-8.44 0-13.56 4.75a15.94 15.94 0 0 0-5.12 12.23v1a16 16 0 0 0 5.29 12.3q5.12 4.74 14.68 4.74a22.39 22.39 0 0 0 10-2 17.87 17.87 0 0 0 6-4.4l-4.21-3.21a15.58 15.58 0 0 1-4.74 3.29 16.47 16.47 0 0 1-7.06 1.4q-6.86 0-10.1-3.37a11.63 11.63 0 0 1-3.22-7.79H356l.05-2.45q0-7.56-4.54-12t-13-4.43Zm10.91 14.1h-22.77a11.43 11.43 0 0 1 2.82-5.79q3.09-3.36 9.19-3.36c3.89 0 6.67.82 8.36 2.46a8.84 8.84 0 0 1 2.52 6.59Zm-34.18-8.53v-4.62h-9.32v-8.17h-6.55v8.17h-7.58v4.62h7.59v20.19q0 4.79 2.54 7a10 10 0 0 0 6.82 2.21 19.41 19.41 0 0 0 3.49-.28 14.05 14.05 0 0 0 2.55-.66v-4.87c-.73.21-1.43.37-2.12.5a12 12 0 0 1-2.16.19 5.29 5.29 0 0 1-3.47-.94 3.92 3.92 0 0 1-1.1-3.15v-20.13Zm-29.52 12.54c-2.41-1.55-6.08-2.71-11-3.55-4.64-.78-7.72-1.59-9.23-2.34s-2.27-1.76-2.27-3a3.51 3.51 0 0 1 2.1-3.14c1.4-.78 3.68-1.2 6.82-1.2q5 0 7.22 1.37a4.34 4.34 0 0 1 2.21 3.85v.41h6.51v-.41c0-3-1.44-5.48-4.31-7.34s-6.76-2.75-11.66-2.75c-4.73 0-8.48.9-11.26 2.73s-4.17 4.08-4.17 6.83a7.11 7.11 0 0 0 3.73 6.37c2.49 1.52 6 2.62 10.82 3.41s8 1.61 9.39 2.43a3.82 3.82 0 0 1 2.1 3.42q0 2.3-2.81 3.6a18.16 18.16 0 0 1-7.5 1.3 16.91 16.91 0 0 1-7.49-1.43 4.54 4.54 0 0 1-2.85-4.26v-.22h-6.54v.22a8.84 8.84 0 0 0 4.32 7.67q4.32 2.88 12.56 2.89t12.71-2.78c2.87-1.9 4.31-4.32 4.36-7.32a7.48 7.48 0 0 0-3.64-6.7Zm235.93-57.76h-.44l-340 3-21.83.19-62.5.75a50 50 0 0 0-49.52 50v.44a50 50 0 0 0 50 49.56h.44l83.38-.9h.07l340.83-3a50 50 0 0 0 49.56-50v-.46a50 50 0 0 0-49.87-49.52Zm-401.17 31.23a5 5 0 0 1 5.19-4.31 3.61 3.61 0 0 1 3.07 1.23 3.8 3.8 0 0 1 .64 3.08 5.23 5.23 0 0 1-1.7 3 5 5 0 0 1-3.46 1.19 3.77 3.77 0 0 1-3.12-1.19 3.55 3.55 0 0 1-.62-3ZM112.47 419l-.1.5h-7.17l.13-.53a3.44 3.44 0 0 0-1.32-3.6c-1.15-.87-3.16-1.31-6-1.31a13.88 13.88 0 0 0-6.1 1.09 4 4 0 0 0-2.33 2.94 2.62 2.62 0 0 0 1.52 2.78q1.82 1.08 8.19 2.22 6.76 1.21 9.61 3.55c1.9 1.55 2.59 3.78 2.09 6.7a11 11 0 0 1-5.44 7.5q-4.62 2.88-12.48 2.87t-11.5-2.89a7.61 7.61 0 0 1-2.78-7.86v-.28H86v.32a3.5 3.5 0 0 0 1.76 4 12.56 12.56 0 0 0 6.24 1.26 16.26 16.26 0 0 0 6.68-1.21 4.67 4.67 0 0 0 3-3.32 2.89 2.89 0 0 0-1.33-3.09c-1.12-.74-3.9-1.5-8.32-2.28s-7.44-1.9-9.42-3.44a6.2 6.2 0 0 1-2.26-6.43q.77-4.33 5.29-7.06A22 22 0 0 1 99 408.68h.15q6.9 0 10.49 2.8a7.24 7.24 0 0 1 2.83 7.52Zm8.46 23.77h-7.26l5.81-33.11h7.27Zm55.31 0 3.49-19.84q.69-4.31-.94-6.21t-5.38-1.9a10.89 10.89 0 0 0-5.83 1.62 17.15 17.15 0 0 0-4.58 4.16l-3.58 20.4-.31 1.77h-7.27l3.52-19.81q.72-4.34-.93-6.24t-5.39-1.9a10.86 10.86 0 0 0-5.8 1.6 16.46 16.46 0 0 0-4.58 4.18l-3.89 22.17h-7.24l5.83-33.11h6.73l-.6 4.84h.1a18.52 18.52 0 0 1 6-4.08 17.53 17.53 0 0 1 7-1.39 12.83 12.83 0 0 1 6.48 1.5 4.66 4.66 0 0 1 .47.3 7.49 7.49 0 0 1 3.05 4.33h.06a18.88 18.88 0 0 1 6.51-4.67 19.52 19.52 0 0 1 7.55-1.46 15 15 0 0 1 4.66.66 9 9 0 0 1 4 2.6q2.91 3.25 1.57 10.86l-3.46 19.62ZM522 459.05l-340.74 3v-.84a40.06 40.06 0 0 0 23.89-15.48h5.29l.44-2.48 8.12-46.38.62-3.52H213l-.45.15-9 2.93A40 40 0 0 0 181.29 383v-.95l340-3a40 40 0 1 1 .7 80Zm-328.77-49.84 1.19-6.66L205.5 399l8-2.6h2.58l-3.57 20.25-4.26 24.16-.35 2h-7.5l6.76-38.33ZM505.71 414a13.76 13.76 0 0 0-5.17-3.55 20.24 20.24 0 0 0-7.85-1.36q-7.79 0-12.45 4.59a16.2 16.2 0 0 0-4.7 12v1a16.2 16.2 0 0 0 4.7 12q4.69 4.73 12.49 4.72a19.1 19.1 0 0 0 8-1.56 13.23 13.23 0 0 0 5.12-3.75h.15l.37 4.68h5.9v-48.3h-6.55Zm0 18.46a11.77 11.77 0 0 1-4.23 4.18 13.33 13.33 0 0 1-7.16 1.82q-6.27 0-9.21-3.25a12.16 12.16 0 0 1-2.93-8.48v-1a12.16 12.16 0 0 1 2.93-8.48q2.94-3.25 9.21-3.25a13.37 13.37 0 0 1 7.12 1.82 11.59 11.59 0 0 1 4.27 4.19Zm-41.25-19a17.13 17.13 0 0 0-4.48-2.9l1.83-4.21-5.8-.09-1.23 2.8a26.73 26.73 0 0 0-4.46-.35q-8.88 0-14.18 4.75a15.64 15.64 0 0 0-5.29 12.23v1a15.73 15.73 0 0 0 5.29 12.24 16.88 16.88 0 0 0 4.51 2.9l-1.8 4.11 5.6.16 1.28-2.79a29.39 29.39 0 0 0 4.59.36q8.81 0 14.09-4.7a15.73 15.73 0 0 0 5.29-12.24l.05-1a15.71 15.71 0 0 0-5.25-12.27Zm-21.14 23.8a9.79 9.79 0 0 1-2.57-1.9 12 12 0 0 1-3.22-8.67v-1a12 12 0 0 1 3.22-8.66q3.22-3.37 9.57-3.38a18.12 18.12 0 0 1 3.12.21l-4.31 10Zm19.7-10.54a12.05 12.05 0 0 1-3.23 8.67q-3.22 3.38-9.52 3.38a19.86 19.86 0 0 1-3.18-.25l5.35-12.42 4.74-11a9.24 9.24 0 0 1 2.61 1.95 12 12 0 0 1 3.23 8.67Zm-38.46-18a12 12 0 0 0-6.5 1.71 17 17 0 0 0-4.46 4h-.1l-.3-4.75h-6v33.08h6.54v-22.71a11.06 11.06 0 0 1 4-4 12.05 12.05 0 0 1 6.46-1.57c.68 0 1.31 0 1.87.07s1.11.1 1.63.18v-5.6a12.26 12.26 0 0 0-1.34-.28 9.66 9.66 0 0 0-1.76-.16Zm-30.72 3.52q-3.74-3.16-10-3.16a19.06 19.06 0 0 0-7.5 1.39 16.59 16.59 0 0 0-5.9 4.21h-.1l-.31-5h-6v33.08h6.55v-22.55a13.43 13.43 0 0 1 4.51-4.42 12.37 12.37 0 0 1 6.58-1.72 10.44 10.44 0 0 1 6.85 2q2.4 2 2.4 6.6v20.06h6.58v-20q.12-7.36-3.62-10.52Zm-55.37-3.51q-8.44 0-13.56 4.75a15.94 15.94 0 0 0-5.12 12.23v1a16 16 0 0 0 5.21 12.21q5.12 4.74 14.68 4.74a22.39 22.39 0 0 0 10-2 17.87 17.87 0 0 0 6-4.4l-4.21-3.21a15.58 15.58 0 0 1-4.74 3.29 16.47 16.47 0 0 1-7.06 1.4q-6.86 0-10.1-3.37a11.63 11.63 0 0 1-3.22-7.79H356l.05-2.45q0-7.56-4.54-12t-13-4.43Zm10.91 14.1h-22.85a11.43 11.43 0 0 1 2.82-5.79q3.09-3.36 9.19-3.36c3.89 0 6.67.82 8.36 2.46a8.84 8.84 0 0 1 2.52 6.59Zm-34.18-8.53v-4.62h-9.32v-8.17h-6.55v8.17h-7.58v4.62h7.59v20.19q0 4.79 2.54 7a10 10 0 0 0 6.82 2.21 19.41 19.41 0 0 0 3.49-.28 14.05 14.05 0 0 0 2.55-.66v-4.87c-.73.21-1.43.37-2.12.5a12 12 0 0 1-2.16.19 5.29 5.29 0 0 1-3.47-.94 3.92 3.92 0 0 1-1.1-3.15v-20.22Zm-29.52 12.54c-2.41-1.55-6.08-2.71-11-3.55-4.64-.78-7.72-1.59-9.23-2.34s-2.27-1.76-2.27-3a3.51 3.51 0 0 1 2.1-3.14c1.4-.78 3.68-1.2 6.82-1.2q5 0 7.22 1.37a4.34 4.34 0 0 1 2.21 3.85v.41h6.51v-.41c0-3-1.44-5.48-4.31-7.34s-6.76-2.75-11.66-2.75c-4.73 0-8.48.9-11.26 2.73s-4.17 4.08-4.17 6.83a7.11 7.11 0 0 0 3.73 6.37c2.49 1.52 6 2.62 10.82 3.41s8 1.61 9.39 2.43a3.82 3.82 0 0 1 2.1 3.42q0 2.3-2.81 3.6a18.16 18.16 0 0 1-7.5 1.3 16.91 16.91 0 0 1-7.49-1.43 4.54 4.54 0 0 1-2.85-4.26v-.22h-6.54v.22a8.84 8.84 0 0 0 4.32 7.67q4.32 2.88 12.56 2.89t12.63-2.87c2.87-1.9 4.31-4.32 4.36-7.32a7.48 7.48 0 0 0-3.64-6.7Zm0 0c-2.41-1.55-6.08-2.71-11-3.55-4.64-.78-7.72-1.59-9.23-2.34s-2.27-1.76-2.27-3a3.51 3.51 0 0 1 2.1-3.14c1.4-.78 3.68-1.2 6.82-1.2q5 0 7.22 1.37a4.34 4.34 0 0 1 2.21 3.85v.41h6.51v-.41c0-3-1.44-5.48-4.31-7.34s-6.76-2.75-11.66-2.75c-4.73 0-8.48.9-11.26 2.73s-4.17 4.08-4.17 6.83a7.11 7.11 0 0 0 3.73 6.37c2.49 1.52 6 2.62 10.82 3.41s8 1.61 9.39 2.43a3.82 3.82 0 0 1 2.1 3.42q0 2.3-2.81 3.6a18.16 18.16 0 0 1-7.5 1.3 16.91 16.91 0 0 1-7.49-1.43 4.54 4.54 0 0 1-2.85-4.26v-.22h-6.54v.22a8.84 8.84 0 0 0 4.32 7.67q4.32 2.88 12.56 2.89t12.63-2.87c2.87-1.9 4.31-4.32 4.36-7.32a7.48 7.48 0 0 0-3.64-6.7Zm24.77 11.74a5.29 5.29 0 0 1-3.47-.94 3.92 3.92 0 0 1-1.1-3.15v-20.22h9.32v-4.62h-9.32v-8.17h-6.55v8.17h-7.58v4.62h7.59v20.19q0 4.79 2.54 7a10 10 0 0 0 6.82 2.21 19.41 19.41 0 0 0 3.49-.28 14.05 14.05 0 0 0 2.55-.66v-4.87c-.73.21-1.43.37-2.12.5a12 12 0 0 1-2.13.19Zm45.56-13.42q0-7.56-4.54-12t-13-4.43q-8.44 0-13.56 4.75a15.94 15.94 0 0 0-5.12 12.23v1a16 16 0 0 0 5.21 12.21q5.12 4.74 14.68 4.74a22.39 22.39 0 0 0 10-2 17.87 17.87 0 0 0 6-4.4l-4.21-3.21a15.58 15.58 0 0 1-4.74 3.29 16.47 16.47 0 0 1-7.06 1.4q-6.86 0-10.1-3.37a11.63 11.63 0 0 1-3.22-7.79H356Zm-6.63-2.33h-22.85a11.43 11.43 0 0 1 2.82-5.79q3.09-3.36 9.19-3.36c3.89 0 6.67.82 8.36 2.46a8.84 8.84 0 0 1 2.52 6.59Zm44.46-10.59q-3.74-3.16-10-3.16a19.06 19.06 0 0 0-7.5 1.39 16.59 16.59 0 0 0-5.9 4.21h-.1l-.31-5h-6v33.08h6.55v-22.55a13.43 13.43 0 0 1 4.51-4.42 12.37 12.37 0 0 1 6.58-1.72 10.44 10.44 0 0 1 6.85 2q2.4 2 2.4 6.6v20.06h6.58v-20q.12-7.36-3.62-10.52Zm32.5-3.36a9.66 9.66 0 0 0-1.78-.16 12 12 0 0 0-6.5 1.71 17 17 0 0 0-4.46 4h-.1l-.3-4.75h-6v33.08h6.54v-22.71a11.06 11.06 0 0 1 4-4 12.05 12.05 0 0 1 6.46-1.57c.68 0 1.31 0 1.87.07s1.11.1 1.63.18v-5.6a12.26 12.26 0 0 0-1.32-.28Zm38.12 4.61a17.13 17.13 0 0 0-4.48-2.9l1.83-4.21-5.8-.09-1.23 2.8a26.73 26.73 0 0 0-4.46-.35q-8.88 0-14.18 4.75a15.64 15.64 0 0 0-5.29 12.23v1a15.73 15.73 0 0 0 5.29 12.24 16.88 16.88 0 0 0 4.51 2.9l-1.8 4.11 5.6.16 1.28-2.79a29.39 29.39 0 0 0 4.59.36q8.81 0 14.09-4.7a15.73 15.73 0 0 0 5.29-12.24l.05-1a15.71 15.71 0 0 0-5.25-12.3Zm-21.14 23.8a9.79 9.79 0 0 1-2.57-1.9 12 12 0 0 1-3.22-8.67v-1a12 12 0 0 1 3.22-8.66q3.22-3.37 9.57-3.38a18.12 18.12 0 0 1 3.12.21l-4.31 10Zm19.7-10.54a12.05 12.05 0 0 1-3.23 8.67q-3.22 3.38-9.52 3.38a19.86 19.86 0 0 1-3.18-.25l5.35-12.42 4.74-11a9.24 9.24 0 0 1 2.61 1.95 12 12 0 0 1 3.23 8.67Zm42.65-32.29V414a13.76 13.76 0 0 0-5.17-3.55 20.24 20.24 0 0 0-7.85-1.36q-7.79 0-12.45 4.59a16.2 16.2 0 0 0-4.7 12v1a16.2 16.2 0 0 0 4.7 12q4.69 4.73 12.49 4.72a19.1 19.1 0 0 0 8-1.56 13.23 13.23 0 0 0 5.12-3.75h.19l.37 4.68h5.9v-48.3Zm0 38a11.77 11.77 0 0 1-4.23 4.18 13.33 13.33 0 0 1-7.16 1.82q-6.27 0-9.21-3.25a12.16 12.16 0 0 1-2.93-8.48v-1a12.16 12.16 0 0 1 2.93-8.48q2.94-3.25 9.21-3.25a13.37 13.37 0 0 1 7.12 1.82 11.59 11.59 0 0 1 4.27 4.19Zm0-38V414a13.76 13.76 0 0 0-5.17-3.55 20.24 20.24 0 0 0-7.85-1.36q-7.79 0-12.45 4.59a16.2 16.2 0 0 0-4.7 12v1a16.2 16.2 0 0 0 4.7 12q4.69 4.73 12.49 4.72a19.1 19.1 0 0 0 8-1.56 13.23 13.23 0 0 0 5.12-3.75h.19l.37 4.68h5.9v-48.3Zm0 38a11.77 11.77 0 0 1-4.23 4.18 13.33 13.33 0 0 1-7.16 1.82q-6.27 0-9.21-3.25a12.16 12.16 0 0 1-2.93-8.48v-1a12.16 12.16 0 0 1 2.93-8.48q2.94-3.25 9.21-3.25a13.37 13.37 0 0 1 7.12 1.82 11.59 11.59 0 0 1 4.27 4.19Zm-41.25-19a17.13 17.13 0 0 0-4.48-2.9l1.83-4.21-5.8-.09-1.23 2.8a26.73 26.73 0 0 0-4.46-.35q-8.88 0-14.18 4.75a15.64 15.64 0 0 0-5.29 12.23v1a15.73 15.73 0 0 0 5.29 12.24 16.88 16.88 0 0 0 4.51 2.9l-1.8 4.11 5.6.16 1.28-2.79a29.39 29.39 0 0 0 4.59.36q8.81 0 14.09-4.7a15.73 15.73 0 0 0 5.29-12.24l.05-1a15.71 15.71 0 0 0-5.21-12.27Zm-21.14 23.8a9.79 9.79 0 0 1-2.57-1.9 12 12 0 0 1-3.22-8.67v-1a12 12 0 0 1 3.22-8.66q3.22-3.37 9.57-3.38a18.12 18.12 0 0 1 3.12.21l-4.31 10Zm19.7-10.54a12.05 12.05 0 0 1-3.23 8.67q-3.22 3.38-9.52 3.38a19.86 19.86 0 0 1-3.18-.25l5.35-12.42 4.74-11a9.24 9.24 0 0 1 2.61 1.95 12 12 0 0 1 3.23 8.67Zm-36.68-17.87a9.66 9.66 0 0 0-1.78-.16 12 12 0 0 0-6.5 1.71 17 17 0 0 0-4.46 4h-.1l-.3-4.75h-6v33.08h6.54v-22.68a11.06 11.06 0 0 1 4-4 12.05 12.05 0 0 1 6.46-1.57c.68 0 1.31 0 1.87.07s1.11.1 1.63.18v-5.6a12.26 12.26 0 0 0-1.28-.28Zm-32.5 3.36q-3.74-3.16-10-3.16a19.06 19.06 0 0 0-7.5 1.39 16.59 16.59 0 0 0-5.9 4.21h-.1l-.31-5h-6v33.08h6.55v-22.52a13.43 13.43 0 0 1 4.51-4.42 12.37 12.37 0 0 1 6.58-1.72 10.44 10.44 0 0 1 6.85 2q2.4 2 2.4 6.6v20.06h6.58v-20q.16-7.36-3.58-10.52Zm-37.83 12.92q0-7.56-4.54-12t-13-4.43q-8.44 0-13.56 4.75a15.94 15.94 0 0 0-5.12 12.23v1a16 16 0 0 0 5.25 12.24q5.12 4.74 14.68 4.74a22.39 22.39 0 0 0 10-2 17.87 17.87 0 0 0 6-4.4l-4.21-3.21a15.58 15.58 0 0 1-4.74 3.29 16.47 16.47 0 0 1-7.06 1.4q-6.86 0-10.1-3.37a11.63 11.63 0 0 1-3.22-7.79H356Zm-6.63-2.33h-22.81a11.43 11.43 0 0 1 2.82-5.79q3.09-3.36 9.19-3.36c3.89 0 6.67.82 8.36 2.46a8.84 8.84 0 0 1 2.52 6.59Zm-38.93 15.75a5.29 5.29 0 0 1-3.47-.94 3.92 3.92 0 0 1-1.1-3.15v-20.19h9.32v-4.62h-9.32v-8.17h-6.55v8.17h-7.58v4.62h7.59v20.19q0 4.79 2.54 7a10 10 0 0 0 6.82 2.21 19.41 19.41 0 0 0 3.49-.28 14.05 14.05 0 0 0 2.55-.66v-4.87c-.73.21-1.43.37-2.12.5a12 12 0 0 1-2.09.19Zm-24.77-11.74c-2.41-1.55-6.08-2.71-11-3.55-4.64-.78-7.72-1.59-9.23-2.34s-2.27-1.76-2.27-3a3.51 3.51 0 0 1 2.1-3.14c1.4-.78 3.68-1.2 6.82-1.2q5 0 7.22 1.37a4.34 4.34 0 0 1 2.21 3.85v.41H288v-.41c0-3-1.44-5.48-4.31-7.34s-6.76-2.75-11.66-2.75c-4.73 0-8.48.9-11.26 2.73s-4.17 4.08-4.17 6.83a7.11 7.11 0 0 0 3.73 6.37c2.49 1.52 6 2.62 10.82 3.41s8 1.61 9.39 2.43a3.82 3.82 0 0 1 2.1 3.42q0 2.3-2.81 3.6a18.16 18.16 0 0 1-7.5 1.3 16.91 16.91 0 0 1-7.49-1.43 4.54 4.54 0 0 1-2.85-4.26v-.22h-6.54v.22a8.84 8.84 0 0 0 4.32 7.67q4.32 2.88 12.56 2.89t12.67-2.84c2.87-1.9 4.31-4.32 4.36-7.32a7.48 7.48 0 0 0-3.64-6.7Zm0 0c-2.41-1.55-6.08-2.71-11-3.55-4.64-.78-7.72-1.59-9.23-2.34s-2.27-1.76-2.27-3a3.51 3.51 0 0 1 2.1-3.14c1.4-.78 3.68-1.2 6.82-1.2q5 0 7.22 1.37a4.34 4.34 0 0 1 2.21 3.85v.41H288v-.41c0-3-1.44-5.48-4.31-7.34s-6.76-2.75-11.66-2.75c-4.73 0-8.48.9-11.26 2.73s-4.17 4.08-4.17 6.83a7.11 7.11 0 0 0 3.73 6.37c2.49 1.52 6 2.62 10.82 3.41s8 1.61 9.39 2.43a3.82 3.82 0 0 1 2.1 3.42q0 2.3-2.81 3.6a18.16 18.16 0 0 1-7.5 1.3 16.91 16.91 0 0 1-7.49-1.43 4.54 4.54 0 0 1-2.85-4.26v-.22h-6.54v.22a8.84 8.84 0 0 0 4.32 7.67q4.32 2.88 12.56 2.89t12.67-2.84c2.87-1.9 4.31-4.32 4.36-7.32a7.48 7.48 0 0 0-3.64-6.7Zm24.77 11.74a5.29 5.29 0 0 1-3.47-.94 3.92 3.92 0 0 1-1.1-3.15v-20.19h9.32v-4.62h-9.32v-8.17h-6.55v8.17h-7.58v4.62h7.59v20.19q0 4.79 2.54 7a10 10 0 0 0 6.82 2.21 19.41 19.41 0 0 0 3.49-.28 14.05 14.05 0 0 0 2.55-.66v-4.87c-.73.21-1.43.37-2.12.5a12 12 0 0 1-2.09.19Zm45.56-13.42q0-7.56-4.54-12t-13-4.43q-8.44 0-13.56 4.75a15.94 15.94 0 0 0-5.12 12.23v1a16 16 0 0 0 5.25 12.24q5.12 4.74 14.68 4.74a22.39 22.39 0 0 0 10-2 17.87 17.87 0 0 0 6-4.4l-4.21-3.21a15.58 15.58 0 0 1-4.74 3.29 16.47 16.47 0 0 1-7.06 1.4q-6.86 0-10.1-3.37a11.63 11.63 0 0 1-3.22-7.79H356Zm-6.63-2.33h-22.81a11.43 11.43 0 0 1 2.82-5.79q3.09-3.36 9.19-3.36c3.89 0 6.67.82 8.36 2.46a8.84 8.84 0 0 1 2.52 6.59Zm44.46-10.59q-3.74-3.16-10-3.16a19.06 19.06 0 0 0-7.5 1.39 16.59 16.59 0 0 0-5.9 4.21h-.1l-.31-5h-6v33.08h6.55v-22.52a13.43 13.43 0 0 1 4.51-4.42 12.37 12.37 0 0 1 6.58-1.72 10.44 10.44 0 0 1 6.85 2q2.4 2 2.4 6.6v20.06h6.58v-20q.16-7.36-3.58-10.52Zm32.5-3.36a9.66 9.66 0 0 0-1.78-.16 12 12 0 0 0-6.5 1.71 17 17 0 0 0-4.46 4h-.1l-.3-4.75h-6v33.08h6.54v-22.68a11.06 11.06 0 0 1 4-4 12.05 12.05 0 0 1 6.46-1.57c.68 0 1.31 0 1.87.07s1.11.1 1.63.18v-5.6a12.26 12.26 0 0 0-1.28-.28Zm38.12 4.61a17.13 17.13 0 0 0-4.48-2.9l1.83-4.21-5.8-.09-1.23 2.8a26.73 26.73 0 0 0-4.46-.35q-8.88 0-14.18 4.75a15.64 15.64 0 0 0-5.29 12.23v1a15.73 15.73 0 0 0 5.29 12.24 16.88 16.88 0 0 0 4.51 2.9l-1.8 4.11 5.6.16 1.28-2.79a29.39 29.39 0 0 0 4.59.36q8.81 0 14.09-4.7a15.73 15.73 0 0 0 5.29-12.24l.05-1a15.71 15.71 0 0 0-5.21-12.27Zm-21.14 23.8a9.79 9.79 0 0 1-2.57-1.9 12 12 0 0 1-3.22-8.67v-1a12 12 0 0 1 3.22-8.66q3.22-3.37 9.57-3.38a18.12 18.12 0 0 1 3.12.21l-4.31 10Zm19.7-10.54a12.05 12.05 0 0 1-3.23 8.67q-3.22 3.38-9.52 3.38a19.86 19.86 0 0 1-3.18-.25l5.35-12.42 4.74-11a9.24 9.24 0 0 1 2.61 1.95 12 12 0 0 1 3.23 8.67Zm42.65-32.29V414a13.76 13.76 0 0 0-5.17-3.55 20.24 20.24 0 0 0-7.85-1.36q-7.79 0-12.45 4.59a16.2 16.2 0 0 0-4.7 12v1a16.2 16.2 0 0 0 4.7 12q4.69 4.73 12.49 4.72a19.1 19.1 0 0 0 8-1.56 13.23 13.23 0 0 0 5.12-3.75h.23l.37 4.68h5.9v-48.3Zm0 38a11.77 11.77 0 0 1-4.23 4.18 13.33 13.33 0 0 1-7.16 1.82q-6.27 0-9.21-3.25a12.16 12.16 0 0 1-2.93-8.48v-1a12.16 12.16 0 0 1 2.93-8.48q2.94-3.25 9.21-3.25a13.37 13.37 0 0 1 7.12 1.82 11.59 11.59 0 0 1 4.27 4.19Zm0-38V414a13.76 13.76 0 0 0-5.17-3.55 20.24 20.24 0 0 0-7.85-1.36q-7.79 0-12.45 4.59a16.2 16.2 0 0 0-4.7 12v1a16.2 16.2 0 0 0 4.7 12q4.69 4.73 12.49 4.72a19.1 19.1 0 0 0 8-1.56 13.23 13.23 0 0 0 5.12-3.75h.23l.37 4.68h5.9v-48.3Zm0 38a11.77 11.77 0 0 1-4.23 4.18 13.33 13.33 0 0 1-7.16 1.82q-6.27 0-9.21-3.25a12.16 12.16 0 0 1-2.93-8.48v-1a12.16 12.16 0 0 1 2.93-8.48q2.94-3.25 9.21-3.25a13.37 13.37 0 0 1 7.12 1.82 11.59 11.59 0 0 1 4.27 4.19Zm-41.25-19a17.13 17.13 0 0 0-4.48-2.9l1.83-4.21-5.8-.09-1.23 2.8a26.73 26.73 0 0 0-4.46-.35q-8.88 0-14.18 4.75a15.64 15.64 0 0 0-5.29 12.23v1a15.73 15.73 0 0 0 5.29 12.24 16.88 16.88 0 0 0 4.51 2.9l-1.8 4.11 5.6.16 1.28-2.79a29.39 29.39 0 0 0 4.59.36q8.81 0 14.09-4.7a15.73 15.73 0 0 0 5.29-12.24l.05-1a15.71 15.71 0 0 0-5.17-12.24Zm-21.14 23.8a9.79 9.79 0 0 1-2.57-1.9 12 12 0 0 1-3.22-8.67v-1a12 12 0 0 1 3.22-8.66q3.22-3.37 9.57-3.38a18.12 18.12 0 0 1 3.12.21l-4.31 10Zm19.7-10.54a12.05 12.05 0 0 1-3.23 8.67q-3.22 3.38-9.52 3.38a19.86 19.86 0 0 1-3.18-.25l5.35-12.42 4.74-11a9.24 9.24 0 0 1 2.61 1.95 12 12 0 0 1 3.23 8.67Zm-36.68-17.87a9.66 9.66 0 0 0-1.78-.16 12 12 0 0 0-6.5 1.71 17 17 0 0 0-4.46 4h-.1l-.3-4.75h-6v33.08h6.54v-22.65a11.06 11.06 0 0 1 4-4 12.05 12.05 0 0 1 6.46-1.57c.68 0 1.31 0 1.87.07s1.11.1 1.63.18v-5.6a12.26 12.26 0 0 0-1.24-.28Zm-32.5 3.36q-3.74-3.16-10-3.16a19.06 19.06 0 0 0-7.5 1.39 16.59 16.59 0 0 0-5.9 4.21h-.1l-.31-5h-6v33.08h6.55v-22.49a13.43 13.43 0 0 1 4.51-4.42 12.37 12.37 0 0 1 6.58-1.72 10.44 10.44 0 0 1 6.85 2q2.4 2 2.4 6.6v20.06h6.58v-20q.2-7.36-3.54-10.52Zm-37.83 12.92q0-7.56-4.54-12t-13-4.43q-8.44 0-13.56 4.75a15.94 15.94 0 0 0-5.12 12.23v1a16 16 0 0 0 5.29 12.27q5.12 4.74 14.68 4.74a22.39 22.39 0 0 0 10-2 17.87 17.87 0 0 0 6-4.4l-4.21-3.21a15.58 15.58 0 0 1-4.74 3.29 16.47 16.47 0 0 1-7.06 1.4q-6.86 0-10.1-3.37a11.63 11.63 0 0 1-3.22-7.79H356Zm-6.63-2.33h-22.77a11.43 11.43 0 0 1 2.82-5.79q3.09-3.36 9.19-3.36c3.89 0 6.67.82 8.36 2.46a8.84 8.84 0 0 1 2.52 6.59Zm-38.93 15.75a5.29 5.29 0 0 1-3.47-.94 3.92 3.92 0 0 1-1.1-3.15v-20.16h9.32v-4.62h-9.32v-8.17h-6.55v8.17h-7.58v4.62h7.59v20.19q0 4.79 2.54 7a10 10 0 0 0 6.82 2.21 19.41 19.41 0 0 0 3.49-.28 14.05 14.05 0 0 0 2.55-.66v-4.87c-.73.21-1.43.37-2.12.5a12 12 0 0 1-2.05.19Zm-24.77-11.74c-2.41-1.55-6.08-2.71-11-3.55-4.64-.78-7.72-1.59-9.23-2.34s-2.27-1.76-2.27-3a3.51 3.51 0 0 1 2.1-3.14c1.4-.78 3.68-1.2 6.82-1.2q5 0 7.22 1.37a4.34 4.34 0 0 1 2.21 3.85v.41h6.51v-.41c0-3-1.44-5.48-4.31-7.34s-6.76-2.75-11.66-2.75c-4.73 0-8.48.9-11.26 2.73s-4.17 4.08-4.17 6.83a7.11 7.11 0 0 0 3.73 6.37c2.49 1.52 6 2.62 10.82 3.41s8 1.61 9.39 2.43a3.82 3.82 0 0 1 2.1 3.42q0 2.3-2.81 3.6a18.16 18.16 0 0 1-7.5 1.3 16.91 16.91 0 0 1-7.49-1.43 4.54 4.54 0 0 1-2.85-4.26v-.22h-6.54v.22a8.84 8.84 0 0 0 4.32 7.67q4.32 2.88 12.56 2.89t12.71-2.81c2.87-1.9 4.31-4.32 4.36-7.32a7.48 7.48 0 0 0-3.64-6.7Z" transform="translate(-47.36 -369.05)" style="fill:#040505"/>
    <path d="M474.29 0h-.44l-340 3-21.83.19-62.5.75A50 50 0 0 0 0 53.94v.44a50 50 0 0 0 50 49.56h.44l83.38-.9h.07l340.83-3a50 50 0 0 0 49.56-50v-.46A50 50 0 0 0 474.29 0Zm45 50a45 45 0 0 1-44.6 45l-340.8 3-21.83.19-61.67.76H50A45 45 0 0 1 5 54.36v-.41a45 45 0 0 1 44.64-45l62.46-.75 21.83-.15 340-3h.41a45 45 0 0 1 45 44.56Z"/>
</svg>
