<?xml version="1.0" standalone="no"?>
<!DOCTYPE svg PUBLIC "-//W3C//DTD SVG 20010904//EN"
 "http://www.w3.org/TR/2001/REC-SVG-20010904/DTD/svg10.dtd">
<svg version="1.0" xmlns="http://www.w3.org/2000/svg"
 width="520.000000pt" height="520.000000pt" viewBox="0 0 520.000000 520.000000"
 preserveAspectRatio="xMidYMid meet">
<metadata>
Created by potrace 1.14, written by Peter Selinger 2001-2017
</metadata>
<g transform="translate(0.000000,520.000000) scale(0.100000,-0.100000)"
fill="#000000" stroke="none">
<path d="M2293 5074 c-442 -53 -893 -242 -1244 -521 -511 -407 -848 -1012
-924 -1659 -128 -1093 472 -2140 1477 -2578 635 -277 1361 -277 1996 0 574
250 1036 712 1286 1286 277 635 277 1361 0 1996 -160 367 -420 706 -733 955
-356 283 -804 469 -1257 522 -157 18 -447 18 -601 -1z m144 -1355 c453 -2 542
-4 628 -19 117 -21 210 -50 280 -89 130 -72 152 -86 180 -111 17 -15 41 -34
54 -43 14 -9 62 -61 108 -114 91 -107 164 -240 201 -368 49 -170 48 -485 -3
-645 -33 -103 -107 -241 -174 -323 -31 -38 -64 -79 -75 -92 -24 -30 -14 -45
33 -45 82 0 134 -41 97 -78 -12 -13 -20 -13 -41 -4 -33 15 -78 15 -93 0 -20
-20 -14 -56 14 -74 24 -16 28 -16 71 5 37 18 48 20 54 9 14 -22 10 -38 -17
-65 -24 -24 -31 -25 -91 -20 -55 4 -70 9 -95 34 -16 16 -35 47 -43 69 -18 52
-40 54 -101 6 -27 -22 -67 -45 -89 -52 -22 -7 -53 -19 -70 -28 -16 -8 -79 -28
-140 -45 l-110 -30 -585 2 c-866 3 -988 19 -1236 167 -192 115 -363 314 -429
502 -11 28 -25 52 -32 52 -10 0 -13 68 -13 345 0 287 2 345 14 345 7 0 19 14
25 30 6 17 16 45 23 63 7 17 35 73 62 122 41 73 71 111 164 202 106 105 123
117 241 177 181 92 247 108 461 116 96 3 180 5 187 4 7 -2 250 -4 540 -5z
m2018 -1840 c42 -37 43 -48 10 -79 -32 -30 -32 -63 1 -89 34 -27 42 -26 66 4
34 43 78 24 78 -35 0 -27 -25 -36 -65 -22 -26 10 -38 9 -63 -4 -64 -31 -132
18 -132 95 0 21 -7 35 -24 47 -47 30 -106 -21 -106 -91 0 -37 -16 -55 -47 -55
-30 0 -42 26 -45 97 -1 43 3 68 15 87 16 25 22 26 98 26 72 0 84 3 111 25 39
33 60 32 103 -6z m-404 -29 c10 -6 26 -24 35 -41 14 -28 14 -33 0 -54 -9 -14
-16 -37 -16 -53 0 -49 -42 -67 -127 -53 -66 10 -133 60 -133 100 0 33 23 67
64 92 35 21 143 27 177 9z"/>
<path d="M1585 3650 c-16 -5 -70 -19 -120 -30 -137 -32 -268 -107 -390 -222
-135 -127 -202 -229 -263 -398 -46 -125 -56 -208 -48 -399 5 -135 10 -173 27
-210 11 -25 29 -71 38 -102 49 -153 284 -419 442 -500 96 -49 313 -106 404
-107 17 0 318 -3 670 -7 590 -7 646 -6 720 10 44 10 97 26 117 36 21 11 42 19
48 19 22 0 155 63 198 94 73 52 180 150 211 192 98 137 166 271 190 379 20 87
41 228 41 275 0 63 -53 291 -87 375 -63 154 -210 326 -368 430 -90 59 -232
119 -310 131 -22 3 -62 13 -90 20 -41 12 -176 16 -725 19 -390 2 -688 0 -705
-5z m1477 -185 c81 -17 210 -65 237 -89 9 -7 31 -21 49 -30 43 -22 169 -142
188 -179 21 -39 12 -55 -33 -62 -21 -3 -57 -15 -81 -25 -23 -11 -61 -23 -85
-26 -59 -9 -81 -25 -111 -85 -33 -67 -34 -108 -2 -138 20 -19 32 -22 58 -17
18 4 57 9 85 12 64 8 73 -5 54 -75 -7 -25 -15 -75 -17 -111 -3 -36 -17 -116
-31 -178 -25 -107 -25 -115 -10 -147 25 -53 103 -67 221 -39 28 7 29 6 22 -22
-4 -16 -20 -44 -34 -62 -15 -19 -41 -52 -58 -75 -81 -110 -288 -237 -449 -276
-72 -17 -114 -21 -210 -19 -115 3 -120 4 -123 25 -2 16 20 44 86 110 87 86
159 182 187 250 8 18 28 45 45 60 42 35 60 73 60 127 0 24 9 73 20 108 12 35
24 106 27 159 6 94 5 98 -25 150 -16 30 -44 97 -62 149 -56 170 -111 260 -237
392 -75 78 -95 113 -77 131 11 11 224 -2 306 -18z m-1110 -392 c62 -56 -37
-161 -118 -124 -36 16 -34 82 2 116 32 30 88 33 116 8z m1713 -19 c21 -21 12
-120 -21 -251 -13 -51 -27 -132 -30 -180 -3 -51 -14 -108 -25 -135 -10 -26
-19 -60 -19 -77 0 -55 -15 -78 -57 -86 -22 -3 -51 -1 -66 4 -24 9 -27 16 -27
53 0 24 9 76 20 117 12 40 25 115 30 165 4 50 16 118 24 151 20 73 20 89 1
105 -11 9 -24 8 -60 -5 -25 -10 -71 -18 -102 -19 -53 -1 -58 1 -61 21 -4 30
38 69 85 78 21 4 51 14 67 22 35 18 158 50 198 52 15 1 34 -6 43 -15z m-2132
-204 c93 -42 133 -110 85 -144 -40 -28 -76 -20 -123 28 -49 51 -85 62 -173 53
-45 -5 -62 -12 -79 -32 -49 -56 -23 -75 151 -110 106 -21 135 -30 167 -56 43
-34 54 -62 45 -113 -21 -111 -185 -177 -394 -157 -76 7 -96 13 -135 40 -52 35
-67 57 -67 96 0 20 8 29 34 40 42 18 59 13 113 -36 48 -44 86 -54 184 -47 72
6 102 21 112 59 10 37 -23 55 -158 84 -143 30 -157 36 -197 73 -32 29 -36 64
-14 115 35 82 152 136 297 137 75 0 95 -4 152 -30z m1009 1 c24 -10 52 -28 62
-40 25 -28 52 -27 97 5 78 54 227 71 299 34 21 -11 51 -36 67 -57 45 -59 40
-143 -26 -418 -9 -38 -50 -59 -97 -51 -44 9 -53 41 -30 110 24 73 43 252 30
274 -15 23 -84 62 -111 62 -41 0 -129 -40 -161 -73 -26 -26 -33 -45 -42 -102
-21 -143 -48 -248 -66 -263 -23 -16 -92 -8 -113 13 -12 12 -12 22 2 72 19 65
37 183 37 238 0 80 -57 124 -142 111 -102 -17 -178 -89 -178 -170 0 -19 -9
-82 -20 -138 -23 -119 -41 -144 -98 -134 -46 7 -65 24 -57 53 3 13 12 72 20
131 8 59 21 129 30 156 8 27 15 66 15 87 0 43 15 90 33 101 24 15 95 9 109
-10 23 -32 35 -32 99 -2 79 36 173 41 241 11z m-632 -6 c16 -19 8 -103 -21
-243 -11 -53 -24 -130 -29 -171 -4 -41 -15 -80 -23 -88 -18 -18 -96 -28 -116
-14 -18 12 -16 72 3 149 8 32 22 109 30 172 22 173 41 210 106 210 21 0 43 -7
50 -15z m1800 -224 c0 -56 -8 -84 -21 -75 -17 10 -6 124 12 124 5 0 9 -22 9
-49z m-43 -200 c-6 -68 -15 -90 -28 -70 -20 31 -3 129 22 129 8 0 10 -18 6
-59z"/>
<path d="M3948 1769 c-41 -23 2 -71 43 -49 23 13 21 28 -7 46 -13 9 -24 10
-36 3z"/>
</g>
</svg>
